<mxfile host="app.diagrams.net" modified="2020-09-25T12:50:16.616Z" agent="5.0 (Windows)" etag="m4mHP8WKtHs-tDW9Y3SP" version="13.7.5" type="github">
  <diagram id="EPzS_-X5WxEP48OquIpx" name="Page-1">
    <mxGraphModel dx="1038" dy="609" grid="1" gridSize="10" guides="1" tooltips="1" connect="1" arrows="1" fold="1" page="1" pageScale="1" pageWidth="850" pageHeight="1100" math="0" shadow="0">
      <root>
        <mxCell id="0" />
        <mxCell id="1" parent="0" />
        <mxCell id="BUa6W3uaxPoixpMAixVZ-5" value="" style="edgeStyle=orthogonalEdgeStyle;rounded=0;orthogonalLoop=1;jettySize=auto;html=1;fontColor=#000000;" edge="1" parent="1" source="BUa6W3uaxPoixpMAixVZ-1" target="BUa6W3uaxPoixpMAixVZ-3">
          <mxGeometry relative="1" as="geometry" />
        </mxCell>
        <mxCell id="BUa6W3uaxPoixpMAixVZ-7" value="" style="edgeStyle=orthogonalEdgeStyle;rounded=0;orthogonalLoop=1;jettySize=auto;html=1;fontColor=#000000;" edge="1" parent="1" source="BUa6W3uaxPoixpMAixVZ-1" target="BUa6W3uaxPoixpMAixVZ-2">
          <mxGeometry relative="1" as="geometry" />
        </mxCell>
        <mxCell id="BUa6W3uaxPoixpMAixVZ-1" value="setup" style="rounded=1;whiteSpace=wrap;html=1;fillColor=#f5f5f5;strokeColor=#666666;fontColor=#333333;" vertex="1" parent="1">
          <mxGeometry x="240" y="80" width="120" height="60" as="geometry" />
        </mxCell>
        <mxCell id="BUa6W3uaxPoixpMAixVZ-2" value="loop" style="rounded=1;whiteSpace=wrap;html=1;fillColor=#f5f5f5;strokeColor=#666666;fontColor=#333333;" vertex="1" parent="1">
          <mxGeometry x="240" y="200" width="120" height="60" as="geometry" />
        </mxCell>
        <mxCell id="BUa6W3uaxPoixpMAixVZ-6" value="" style="edgeStyle=orthogonalEdgeStyle;rounded=0;orthogonalLoop=1;jettySize=auto;html=1;fontColor=#000000;" edge="1" parent="1" source="BUa6W3uaxPoixpMAixVZ-3" target="BUa6W3uaxPoixpMAixVZ-4">
          <mxGeometry relative="1" as="geometry" />
        </mxCell>
        <mxCell id="BUa6W3uaxPoixpMAixVZ-3" value="Definicion de dos pins de salida" style="rounded=1;whiteSpace=wrap;html=1;fillColor=#e1d5e7;strokeColor=#9673a6;" vertex="1" parent="1">
          <mxGeometry x="440" y="80" width="120" height="60" as="geometry" />
        </mxCell>
        <mxCell id="BUa6W3uaxPoixpMAixVZ-4" value="Definicion de dos pins de entrada" style="rounded=1;whiteSpace=wrap;html=1;fillColor=#e1d5e7;strokeColor=#9673a6;" vertex="1" parent="1">
          <mxGeometry x="640" y="80" width="120" height="60" as="geometry" />
        </mxCell>
        <mxCell id="BUa6W3uaxPoixpMAixVZ-8" value="pulsador" style="rounded=1;whiteSpace=wrap;html=1;fillColor=#dae8fc;strokeColor=#6c8ebf;" vertex="1" parent="1">
          <mxGeometry x="240" y="320" width="120" height="60" as="geometry" />
        </mxCell>
      </root>
    </mxGraphModel>
  </diagram>
</mxfile>
